v 0.2093 0.3067671 -0.0001
v 0.1487 0.3067671 -0.0001
v 0.2313 0.293683 -0.0002
v 0.1483 0.2921801 -0.0002
v 0.2413 0.2725539 -0.0003
v 0.1483 0.271051 -0.0003
v 0.2413 0.2532813 -0.0004
v 0.1483 0.2517784 -0.0004
v 0.2413 0.2346276 -0.0005
v 0.1483 0.2331247 -0.0005
v 0.2413 0.2141173 -0.0006
v 0.1483 0.2126144 -0.0006
v 0.2413 0.1942259 -0.0007
v 0.1491 0.192723 -0.0007
v 0.2413 0.1743345 -0.0008
v 0.1481 0.1728316 -0.0008
v 0.2413 0.1532054 -0.0009
v 0.1492 0.1517025 -0.0009
v 0.2413 0.1326951 -0.0009999999
v 0.148 0.1311922 -0.0009999999
v 0.2413 0.1121849 -0.0011
v 0.1475 0.1106819 -0.0011
v 0.2413 0.09105575 -0.0012
v 0.1481 0.08955284 -0.0012
v 0.2413 0.06992665 -0.0013
v 0.148 0.06842374 -0.0013
v 0.2413 0.04941639 -0.0014
v 0.148 0.04791348 -0.0014
v 0.2413 0.02766845 -0.0015
v 0.1482 0.02616554 -0.0015
v 0.2413 0.007777024 -0.0016
v 0.1472 0.006274117 -0.0016
v 0.2413 -0.01149555 -0.0017
v 0.1469 -0.01299845 -0.0017
v 0.2413 -0.03138696 -0.0018
v 0.1474 -0.03288987 -0.0018
v 0.2422 -0.05189722 -0.0019
v 0.1477 -0.05340013 -0.0019
v 0.2422 -0.07187704 -0.002
v 0.1477 -0.07337995 -0.002
v 0.2422 -0.09415544 -0.0021
v 0.1477 -0.09565835 -0.0021
v 0.2422 -0.1141353 -0.0022
v 0.1477 -0.1156382 -0.0022
v 0.2422 -0.1364136 -0.0023
v 0.1477 -0.1379166 -0.0023
v 0.2422 -0.158692 -0.0024
v 0.1477 -0.1601949 -0.0024
v 0.2422 -0.1824733 -0.0025
v 0.1477 -0.1824733 -0.0025
v 0.2422 -0.2031604 -0.0026
v 0.1477 -0.2031604 -0.0026
v 0.2422 -0.2238475 -0.0027
v 0.1477 -0.2206648 -0.0027
v 0.2363 -0.2390534 -0.0028
v 0.1477 -0.2344562 -0.0028
v 0.2279 -0.2503694 -0.0029
v 0.1478 -0.2481592 -0.0029
v 0.2104 -0.2585027 -0.003
v 0.1478 -0.2599172 -0.003
v 0.1675973 0.2252924 -0.0031
v 0.16809 0.3099599 -0.0031
v 0.12753 0.2295524 -0.0032
v 0.1235 0.3101374 -0.0032
v 0.09971 0.2302624 -0.0033
v 0.08931001 0.3088949 -0.0033
v 0.06227001 0.2306174 -0.0034
v 0.05473001 0.3099599 -0.0034
v 0.02808 0.2302623 -0.0035
v 0.01859156 0.3092498 -0.0035
v -0.00403 0.2270674 -0.0036
v -0.02418 0.3035699 -0.0036
v -0.03639999 0.2203224 -0.0037
v -0.06539 0.2959374 -0.0037
v -0.06422002 0.2109149 -0.0038
v -0.09815002 0.2831574 -0.0038
v -0.09009001 0.1919224 -0.0039
v -0.12623 0.2710874 -0.0039
v -0.10946 0.1713324 -0.004
v -0.15041 0.2545799 -0.004
v -0.11921 0.1523399 -0.0041
v -0.1703 0.2400249 -0.0041
v -0.12792 0.1333475 -0.0042
v -0.18655 0.2164174 -0.0042
v -0.13533 0.1180824 -0.0043
v -0.20397 0.1926324 -0.0043
v -0.14014 0.1035274 -0.0044
v -0.21827 0.1658299 -0.0044
v -0.1469 0.08577737 -0.0045
v -0.22945 0.1345899 -0.0045
v -0.14989 0.06607492 -0.0046
v -0.23621 0.09837992 -0.0046
v -0.15197 0.04672739 -0.0047
v -0.24193 0.05897489 -0.0047
v -0.15262 0.02986491 -0.0048
v -0.24336 0.02205491 -0.0048
v -0.15288 0.01104992 -0.0049
v -0.24245 -0.01504258 -0.0049
v -0.14846 -0.00794258 -0.005
v -0.23829 -0.05001007 -0.005
v -0.14547 -0.03190504 -0.0051
v -0.22919 -0.08426753 -0.0051
v -0.14144 -0.05693257 -0.0052
v -0.21411 -0.12385 -0.0052
v -0.12987 -0.08142756 -0.0053
v -0.19708 -0.1595275 -0.0053
v -0.1144 -0.11036 -0.0054
v -0.16861 -0.19414 -0.0054
v -0.09399001 -0.1339675 -0.0055
v -0.13429 -0.2202325 -0.0055
v -0.07161961 -0.154025 -0.0056
v -0.10335 -0.2386925 -0.0056
v -0.04341999 -0.1662725 -0.0057
v -0.06513 -0.249165 -0.0057
v -0.01499849 -0.1726626 -0.0058
v -0.02313367 -0.2564425 -0.0058
v 0.0201994 -0.1765675 -0.0059
v 0.01644084 -0.257685 -0.0059
v 0.05324281 -0.17656 -0.006
v 0.05011111 -0.25804 -0.006
v 0.0864422 -0.17656 -0.0061
v 0.08612891 -0.25804 -0.0061
v 0.1227733 -0.17656 -0.0062
v 0.1241838 -0.25804 -0.0062
v 0.16107 -0.17568 -0.0063
v 0.1603576 -0.25804 -0.0063
vt 0 0.01587302
vt 1 0.01587302
vt 0 0.03174603
vt 1 0.03174603
vt 0 0.04761905
vt 1 0.04761905
vt 0 0.06349207
vt 1 0.06349207
vt 0 0.07936508
vt 1 0.07936508
vt 0 0.0952381
vt 1 0.0952381
vt 0 0.1111111
vt 1 0.1111111
vt 0 0.1269841
vt 1 0.1269841
vt 0 0.1428571
vt 1 0.1428571
vt 0 0.1587302
vt 1 0.1587302
vt 0 0.1746032
vt 1 0.1746032
vt 0 0.1904762
vt 1 0.1904762
vt 0 0.2063492
vt 1 0.2063492
vt 0 0.2222222
vt 1 0.2222222
vt 0 0.2380952
vt 1 0.2380952
vt 0 0.2539683
vt 1 0.2539683
vt 0 0.2698413
vt 1 0.2698413
vt 0 0.2857143
vt 1 0.2857143
vt 0 0.3015873
vt 1 0.3015873
vt 0 0.3174603
vt 1 0.3174603
vt 0 0.3333333
vt 1 0.3333333
vt 0 0.3492064
vt 1 0.3492064
vt 0 0.3650794
vt 1 0.3650794
vt 0 0.3809524
vt 1 0.3809524
vt 0 0.3968254
vt 1 0.3968254
vt 0 0.4126984
vt 1 0.4126984
vt 0 0.4285714
vt 1 0.4285714
vt 0 0.4444444
vt 1 0.4444444
vt 0 0.4603175
vt 1 0.4603175
vt 0 0.4761905
vt 1 0.4761905
vt 0 0.4920635
vt 1 0.4920635
vt 0 0.5079365
vt 1 0.5079365
vt 0 0.5238096
vt 1 0.5238096
vt 0 0.5396826
vt 1 0.5396826
vt 0 0.5555556
vt 1 0.5555556
vt 0 0.5714286
vt 1 0.5714286
vt 0 0.5873016
vt 1 0.5873016
vt 0 0.6031746
vt 1 0.6031746
vt 0 0.6190476
vt 1 0.6190476
vt 0 0.6349207
vt 1 0.6349207
vt 0 0.6507937
vt 1 0.6507937
vt 0 0.6666667
vt 1 0.6666667
vt 0 0.6825397
vt 1 0.6825397
vt 0 0.6984127
vt 1 0.6984127
vt 0 0.7142857
vt 1 0.7142857
vt 0 0.7301587
vt 1 0.7301587
vt 0 0.7460318
vt 1 0.7460318
vt 0 0.7619048
vt 1 0.7619048
vt 0 0.7777778
vt 1 0.7777778
vt 0 0.7936508
vt 1 0.7936508
vt 0 0.8095238
vt 1 0.8095238
vt 0 0.8253968
vt 1 0.8253968
vt 0 0.8412699
vt 1 0.8412699
vt 0 0.8571429
vt 1 0.8571429
vt 0 0.8730159
vt 1 0.8730159
vt 0 0.8888889
vt 1 0.8888889
vt 0 0.9047619
vt 1 0.9047619
vt 0 0.9206349
vt 1 0.9206349
vt 0 0.9365079
vt 1 0.9365079
vt 0 0.952381
vt 1 0.952381
vt 0 0.968254
vt 1 0.968254
vt 0 0.984127
vt 1 0.984127
vt 0 1
vt 1 1
vn 0.5182639 0 -0.8552207
vn -0.5182639 0 -0.8552207
vn 0.6386268 0.01156377 -0.7694298
vn -0.6386268 -0.01156377 -0.7694298
vn 0.6809714 0.01100465 -0.7322274
vn -0.6809714 -0.01100465 -0.7322274
vn 0.6809714 0.01100465 -0.7322274
vn -0.6809714 -0.01100465 -0.7322274
vn 0.6809714 0.01100465 -0.7322274
vn -0.6809714 -0.01100465 -0.7322274
vn 0.6809714 0.01100465 -0.7322274
vn -0.6809714 -0.01100465 -0.7322274
vn 0.6778111 0.01104862 -0.735153
vn -0.6778111 -0.01104862 -0.735153
vn 0.6817556 0.01099368 -0.7314975
vn -0.6817556 -0.01099368 -0.7314975
vn 0.6774134 0.01105413 -0.7355195
vn -0.6774134 -0.01105413 -0.7355195
vn 0.6821468 0.0109882 -0.7311327
vn -0.6821468 -0.0109882 -0.7311327
vn 0.6840941 0.01096088 -0.7293114
vn -0.6840941 -0.01096088 -0.7293114
vn 0.6817556 0.01099374 -0.7314975
vn -0.6817556 -0.01099374 -0.7314975
vn 0.6821468 0.01098826 -0.7311327
vn -0.6821468 -0.01098826 -0.7311327
vn 0.6821468 0.01098826 -0.7311327
vn -0.6821468 -0.01098826 -0.7311327
vn 0.6813638 0.01099921 -0.7318622
vn -0.6813638 -0.01099921 -0.7318622
vn 0.6852555 0.01094448 -0.7282205
vn -0.6852555 -0.01094448 -0.7282205
vn 0.6864117 0.0109281 -0.727131
vn -0.6864117 -0.0109281 -0.727131
vn 0.6844818 0.01095542 -0.7289476
vn -0.6844818 -0.01095542 -0.7289476
vn 0.6867959 0.01092266 -0.7267682
vn -0.6867959 -0.01092266 -0.7267682
vn 0.6867959 0.01092266 -0.7267682
vn -0.6867959 -0.01092266 -0.7267682
vn 0.6867959 0.01092266 -0.7267682
vn -0.6867959 -0.01092266 -0.7267682
vn 0.6867959 0.01092266 -0.7267682
vn -0.6867959 -0.01092266 -0.7267682
vn 0.6867959 0.01092261 -0.7267682
vn -0.6867959 -0.01092261 -0.7267682
vn 0.6867959 0.01092261 -0.7267682
vn -0.6867959 -0.01092261 -0.7267682
vn 0.686837 0 -0.7268115
vn -0.686837 0 -0.7268115
vn 0.686837 0 -0.7268115
vn -0.686837 0 -0.7268115
vn 0.6866533 -0.02312546 -0.7266172
vn -0.6866533 0.02312546 -0.7266172
vn 0.6627629 -0.03438832 -0.7480393
vn -0.6627629 0.03438832 -0.7480393
vn 0.6250778 -0.01724754 -0.7803718
vn -0.6250778 0.01724754 -0.7803718
vn 0.5305703 0.01198875 -0.8475562
vn -0.5305703 -0.01198875 -0.8475562
vn -0.003760264 -0.6461693 -0.7631848
vn 0.003760264 0.6461693 -0.7631848
vn 0.03136381 -0.6271598 -0.778259
vn -0.03136381 0.6271598 -0.778259
vn 0.08148099 -0.6160629 -0.7834713
vn -0.08148099 0.6160629 -0.7834713
vn 0.05896373 -0.6204677 -0.7820122
vn -0.05896373 0.6204677 -0.7820122
vn 0.07425305 -0.6181271 -0.7825634
vn -0.07425305 0.6181271 -0.7825634
vn 0.1580275 -0.5999751 -0.7842558
vn -0.1580275 0.5999751 -0.7842558
vn 0.225291 -0.587629 -0.7771333
vn -0.225291 0.587629 -0.7771333
vn 0.2651897 -0.5646319 -0.7815787
vn -0.2651897 0.5646319 -0.7815787
vn 0.2726232 -0.5971834 -0.754353
vn -0.2726232 0.5971834 -0.754353
vn 0.3002031 -0.6102845 -0.7330968
vn -0.3002031 0.6102845 -0.7330968
vn 0.3585918 -0.6154454 -0.7018824
vn -0.3585918 0.6154454 -0.7018824
vn 0.4111164 -0.5824906 -0.7012048
vn -0.4111164 0.5824906 -0.7012048
vn 0.4821249 -0.5236363 -0.7023963
vn -0.4821249 0.5236363 -0.7023963
vn 0.5526574 -0.4407005 -0.7073562
vn -0.5526574 0.4407005 -0.7073562
vn 0.5957974 -0.3522999 -0.7217411
vn -0.5957974 0.3522999 -0.7217411
vn 0.6347273 -0.2375447 -0.7353188
vn -0.6347273 0.2375447 -0.7353188
vn 0.6660452 -0.0906779 -0.7403792
vn -0.6660452 0.0906779 -0.7403792
vn 0.6708657 0.05774146 -0.7393274
vn -0.6708657 -0.05774146 -0.7393274
vn 0.6549376 0.1907888 -0.731202
vn -0.6549376 -0.1907888 -0.731202
vn 0.6377646 0.2986659 -0.7099684
vn -0.6377646 -0.2986659 -0.7099684
vn 0.5957116 0.3725866 -0.7115524
vn -0.5957116 -0.3725866 -0.7115524
vn 0.5169804 0.4760564 -0.7114081
vn -0.5169804 -0.4760564 -0.7114081
vn 0.4680835 0.5439267 -0.6964493
vn -0.4680835 -0.5439267 -0.6964493
vn 0.3837276 0.5930398 -0.7078539
vn -0.3837276 -0.5930398 -0.7078539
vn 0.2918625 0.6247521 -0.7242245
vn -0.2918625 -0.6247521 -0.7242245
vn 0.2353605 0.6280217 -0.7417508
vn -0.2353605 -0.6280217 -0.7417508
vn 0.1648558 0.6294474 -0.7593541
vn -0.1648558 -0.6294474 -0.7593541
vn 0.0622381 0.6409577 -0.7650487
vn -0.0622381 -0.6409577 -0.7650487
vn 0.02917721 0.6297042 -0.7762868
vn -0.02917721 -0.6297042 -0.7762868
vn 0.02427105 0.6314798 -0.7750124
vn -0.02427105 -0.6314798 -0.7750124
vn 0.002428798 0.631664 -0.7752385
vn -0.002428798 -0.631664 -0.7752385
vn -0.01093411 0.6316281 -0.7751944
vn 0.01093411 -0.6316281 -0.7751944
vn 0.005499032 0.63573 -0.771892
vn -0.005499032 -0.63573 -0.771892
f 1/1/1 3/3/3 2/2/2
f 2/2/2 3/3/3 4/4/4
f 3/3/3 5/5/5 4/4/4
f 4/4/4 5/5/5 6/6/6
f 5/5/5 7/7/7 6/6/6
f 6/6/6 7/7/7 8/8/8
f 7/7/7 9/9/9 8/8/8
f 8/8/8 9/9/9 10/10/10
f 9/9/9 11/11/11 10/10/10
f 10/10/10 11/11/11 12/12/12
f 11/11/11 13/13/13 12/12/12
f 12/12/12 13/13/13 14/14/14
f 13/13/13 15/15/15 14/14/14
f 14/14/14 15/15/15 16/16/16
f 15/15/15 17/17/17 16/16/16
f 16/16/16 17/17/17 18/18/18
f 17/17/17 19/19/19 18/18/18
f 18/18/18 19/19/19 20/20/20
f 19/19/19 21/21/21 20/20/20
f 20/20/20 21/21/21 22/22/22
f 21/21/21 23/23/23 22/22/22
f 22/22/22 23/23/23 24/24/24
f 23/23/23 25/25/25 24/24/24
f 24/24/24 25/25/25 26/26/26
f 25/25/25 27/27/27 26/26/26
f 26/26/26 27/27/27 28/28/28
f 27/27/27 29/29/29 28/28/28
f 28/28/28 29/29/29 30/30/30
f 29/29/29 31/31/31 30/30/30
f 30/30/30 31/31/31 32/32/32
f 31/31/31 33/33/33 32/32/32
f 32/32/32 33/33/33 34/34/34
f 33/33/33 35/35/35 34/34/34
f 34/34/34 35/35/35 36/36/36
f 35/35/35 37/37/37 36/36/36
f 36/36/36 37/37/37 38/38/38
f 37/37/37 39/39/39 38/38/38
f 38/38/38 39/39/39 40/40/40
f 39/39/39 41/41/41 40/40/40
f 40/40/40 41/41/41 42/42/42
f 41/41/41 43/43/43 42/42/42
f 42/42/42 43/43/43 44/44/44
f 43/43/43 45/45/45 44/44/44
f 44/44/44 45/45/45 46/46/46
f 45/45/45 47/47/47 46/46/46
f 46/46/46 47/47/47 48/48/48
f 47/47/47 49/49/49 48/48/48
f 48/48/48 49/49/49 50/50/50
f 49/49/49 51/51/51 50/50/50
f 50/50/50 51/51/51 52/52/52
f 51/51/51 53/53/53 52/52/52
f 52/52/52 53/53/53 54/54/54
f 53/53/53 55/55/55 54/54/54
f 54/54/54 55/55/55 56/56/56
f 55/55/55 57/57/57 56/56/56
f 56/56/56 57/57/57 58/58/58
f 57/57/57 59/59/59 58/58/58
f 58/58/58 59/59/59 60/60/60
f 61/61/61 63/63/63 62/62/62
f 62/62/62 63/63/63 64/64/64
f 63/63/63 65/65/65 64/64/64
f 64/64/64 65/65/65 66/66/66
f 65/65/65 67/67/67 66/66/66
f 66/66/66 67/67/67 68/68/68
f 67/67/67 69/69/69 68/68/68
f 68/68/68 69/69/69 70/70/70
f 69/69/69 71/71/71 70/70/70
f 70/70/70 71/71/71 72/72/72
f 71/71/71 73/73/73 72/72/72
f 72/72/72 73/73/73 74/74/74
f 73/73/73 75/75/75 74/74/74
f 74/74/74 75/75/75 76/76/76
f 75/75/75 77/77/77 76/76/76
f 76/76/76 77/77/77 78/78/78
f 77/77/77 79/79/79 78/78/78
f 78/78/78 79/79/79 80/80/80
f 79/79/79 81/81/81 80/80/80
f 80/80/80 81/81/81 82/82/82
f 81/81/81 83/83/83 82/82/82
f 82/82/82 83/83/83 84/84/84
f 83/83/83 85/85/85 84/84/84
f 84/84/84 85/85/85 86/86/86
f 85/85/85 87/87/87 86/86/86
f 86/86/86 87/87/87 88/88/88
f 87/87/87 89/89/89 88/88/88
f 88/88/88 89/89/89 90/90/90
f 89/89/89 91/91/91 90/90/90
f 90/90/90 91/91/91 92/92/92
f 91/91/91 93/93/93 92/92/92
f 92/92/92 93/93/93 94/94/94
f 93/93/93 95/95/95 94/94/94
f 94/94/94 95/95/95 96/96/96
f 95/95/95 97/97/97 96/96/96
f 96/96/96 97/97/97 98/98/98
f 97/97/97 99/99/99 98/98/98
f 98/98/98 99/99/99 100/100/100
f 99/99/99 101/101/101 100/100/100
f 100/100/100 101/101/101 102/102/102
f 101/101/101 103/103/103 102/102/102
f 102/102/102 103/103/103 104/104/104
f 103/103/103 105/105/105 104/104/104
f 104/104/104 105/105/105 106/106/106
f 105/105/105 107/107/107 106/106/106
f 106/106/106 107/107/107 108/108/108
f 107/107/107 109/109/109 108/108/108
f 108/108/108 109/109/109 110/110/110
f 109/109/109 111/111/111 110/110/110
f 110/110/110 111/111/111 112/112/112
f 111/111/111 113/113/113 112/112/112
f 112/112/112 113/113/113 114/114/114
f 113/113/113 115/115/115 114/114/114
f 114/114/114 115/115/115 116/116/116
f 115/115/115 117/117/117 116/116/116
f 116/116/116 117/117/117 118/118/118
f 117/117/117 119/119/119 118/118/118
f 118/118/118 119/119/119 120/120/120
f 119/119/119 121/121/121 120/120/120
f 120/120/120 121/121/121 122/122/122
f 121/121/121 123/123/123 122/122/122
f 122/122/122 123/123/123 124/124/124
f 123/123/123 125/125/125 124/124/124
f 124/124/124 125/125/125 126/126/126
